<svg width="1030" height="549" viewBox="0 0 1030 549" fill="none" xmlns="http://www.w3.org/2000/svg">
<g clip-path="url(#clip0_1536_2)">
<path d="M48.1562 547.114L48.3698 545.988C48.4171 545.741 53.2773 521.079 71.4961 506.768C89.7157 492.457 114.827 493.577 115.078 493.59L116.223 493.649L116.009 494.774C115.962 495.022 111.102 519.684 92.883 533.995C74.6634 548.306 49.5522 547.186 49.3012 547.173L48.1562 547.114ZM72.7316 508.341C57.3274 520.44 51.7809 540.224 50.5939 545.199C55.7097 545.221 76.2584 544.51 91.6476 532.422C107.035 520.335 112.594 500.541 113.785 495.564C108.667 495.542 88.1199 496.253 72.7316 508.341Z" fill="#43417B"/>
<path d="M79.9767 513.829C71.6306 535.326 49.6595 546.851 49.6595 546.851C49.6595 546.851 41.2201 523.52 49.5662 502.022C57.9123 480.524 79.8834 469 79.8834 469C79.8834 469 88.3228 492.331 79.9767 513.829Z" fill="#43417B"/>
<path d="M999.341 547.173C999.09 547.186 973.978 548.306 955.759 533.995C937.54 519.684 932.68 495.022 932.633 494.774L932.419 493.649L933.564 493.59C933.815 493.577 958.926 492.457 977.146 506.768C995.365 521.079 1000.22 545.741 1000.27 545.988L1000.49 547.114L999.341 547.173ZM934.857 495.564C936.048 500.541 941.607 520.335 956.994 532.422C972.384 544.51 992.932 545.221 998.048 545.199C996.861 540.224 991.314 520.44 975.91 508.341C960.522 496.253 939.975 495.542 934.857 495.564Z" fill="#43417B"/>
<path d="M968.666 513.829C977.012 535.326 998.983 546.851 998.983 546.851C998.983 546.851 1007.42 523.52 999.076 502.022C990.73 480.524 968.759 469 968.759 469C968.759 469 960.32 492.331 968.666 513.829Z" fill="#43417B"/>
<path d="M590.096 541.975L575.503 535.831L565.493 462.68H432.188L421.338 535.532L408.283 542.06C407.658 542.372 407.157 542.886 406.862 543.519C406.566 544.151 406.492 544.865 406.652 545.545C406.813 546.225 407.198 546.83 407.746 547.264C408.293 547.697 408.971 547.933 409.67 547.933H588.893C589.609 547.933 590.302 547.685 590.856 547.232C591.41 546.779 591.79 546.148 591.932 545.446C592.074 544.745 591.968 544.016 591.633 543.383C591.299 542.75 590.755 542.253 590.096 541.975Z" fill="#7270C2"/>
<path d="M826.987 472.411H172.158C168.722 472.403 165.43 471.033 163.003 468.6C160.577 466.168 159.214 462.873 159.214 459.437V367.098H839.932V459.437C839.932 462.873 838.569 466.168 836.142 468.6C833.715 471.033 830.423 472.403 826.987 472.411Z" fill="#4F4DB3"/>
<path d="M840.616 410.74H158.616V15.6391C158.621 11.4927 160.27 7.51755 163.202 4.58568C166.134 1.6538 170.109 0.0046475 174.256 0H824.976C829.123 0.00464478 833.098 1.65379 836.03 4.58566C838.962 7.51753 840.611 11.4927 840.616 15.6391V410.74Z" fill="#3F3D56"/>
<path d="M799.883 382.064H199.349C196.152 382.06 193.088 380.789 190.827 378.529C188.567 376.268 187.296 373.204 187.292 370.007V40.7332C187.296 37.5365 188.567 34.4718 190.827 32.2114C193.088 29.951 196.152 28.6795 199.349 28.6758H799.883C803.079 28.6795 806.144 29.951 808.404 32.2114C810.665 34.4718 811.936 37.5365 811.94 40.7332V370.007C811.936 373.204 810.665 376.268 808.404 378.529C806.144 380.789 803.079 382.06 799.883 382.064Z" fill="#CDCCFF"/>
<path d="M1028.04 548.694H1.58766C1.24199 548.702 0.903596 548.594 0.625211 548.389C0.346826 548.184 0.14408 547.893 0.0485657 547.561C-0.0110648 547.334 -0.0180054 547.097 0.0282715 546.868C0.0745484 546.639 0.172806 546.423 0.315495 546.238C0.458185 546.053 0.641496 545.902 0.851323 545.799C1.06115 545.696 1.2919 545.642 1.52581 545.642H1027.91C1028.28 545.629 1028.63 545.74 1028.93 545.957C1029.22 546.173 1029.43 546.483 1029.53 546.835C1029.58 547.059 1029.58 547.29 1029.52 547.513C1029.47 547.736 1029.37 547.944 1029.23 548.122C1029.08 548.301 1028.9 548.445 1028.7 548.544C1028.49 548.643 1028.26 548.694 1028.04 548.694Z" fill="#4F4DB3"/>
<path d="M318.388 153.203H219.582V162.482H318.388V153.203Z" fill="#807DFF"/>
<path d="M318.388 175.705H219.582V184.984H318.388V175.705Z" fill="#807DFF"/>
<path d="M318.388 198.705H219.582V207.984H318.388V198.705Z" fill="#807DFF"/>
<path d="M318.388 221.705H219.582V230.984H318.388V221.705Z" fill="#807DFF"/>
<path d="M294.985 250.932H242.985V258.984H294.985V250.932Z" fill="#605CFF"/>
<path d="M472.137 210.754H471.192V213.588H472.137V210.754Z" fill="#807DFF"/>
<path d="M472.137 273.979H471.192V267.939H472.137V273.979ZM472.137 261.901H471.192V255.861H472.137V261.901ZM472.137 249.822H471.192V243.783H472.137V249.822ZM472.137 237.744H471.192V231.705H472.137V237.744ZM472.137 225.666H471.192V219.627H472.137V225.666Z" fill="#807DFF"/>
<path d="M472.137 280.018H471.192V282.852H472.137V280.018Z" fill="#807DFF"/>
<path d="M575.591 210.754H574.646V213.588H575.591V210.754Z" fill="#807DFF"/>
<path d="M575.591 273.979H574.646V267.939H575.591V273.979ZM575.591 261.901H574.646V255.861H575.591V261.901ZM575.591 249.822H574.646V243.783H575.591V249.822ZM575.591 237.744H574.646V231.705H575.591V237.744ZM575.591 225.666H574.646V219.627H575.591V225.666Z" fill="#807DFF"/>
<path d="M575.591 280.018H574.646V282.852H575.591V280.018Z" fill="#807DFF"/>
<path d="M627.776 155.307H626.831V158.141H627.776V155.307Z" fill="#807DFF"/>
<path d="M627.776 274.213H626.831V268.41H627.776V274.213ZM627.776 262.606H626.831V256.802H627.776V262.606ZM627.776 250.999H626.831V245.195H627.776V250.999ZM627.776 239.391H626.831V233.588H627.776V239.391ZM627.776 227.784H626.831V221.98H627.776V227.784ZM627.776 216.176H626.831V210.373H627.776V216.176ZM627.776 204.569H626.831V198.766H627.776V204.569ZM627.776 192.962H626.831V187.158H627.776V192.962ZM627.776 181.354H626.831V175.551H627.776V181.354ZM627.776 169.747H626.831V163.943H627.776V169.747Z" fill="#807DFF"/>
<path d="M627.776 280.018H626.831V282.852H627.776V280.018Z" fill="#807DFF"/>
<path d="M679.441 132.631H678.496V135.465H679.441V132.631Z" fill="#807DFF"/>
<path d="M679.441 274.236H678.496V268.454H679.441V274.236ZM679.441 262.672H678.496V256.89H679.441V262.672ZM679.441 251.108H678.496V245.326H679.441V251.108ZM679.441 239.544H678.496V233.761H679.441V239.544ZM679.441 227.979H678.496V222.197H679.441V227.979ZM679.441 216.415H678.496V210.633H679.441V216.415ZM679.441 204.851H678.496V199.069H679.441V204.851ZM679.441 193.287H678.496V187.505H679.441V193.287ZM679.441 181.723H678.496V175.941H679.441V181.723ZM679.441 170.159H678.496V164.376H679.441V170.159ZM679.441 158.594H678.496V152.812H679.441V158.594ZM679.441 147.03H678.496V141.248H679.441V147.03Z" fill="#807DFF"/>
<path d="M679.441 280.018H678.496V282.852H679.441V280.018Z" fill="#807DFF"/>
<path d="M524.1 172.785H523.155V175.62H524.1V172.785Z" fill="#807DFF"/>
<path d="M524.1 274.523H523.155V269.028H524.1V274.523ZM524.1 263.533H523.155V258.039H524.1V263.533ZM524.1 252.544H523.155V247.049H524.1V252.544ZM524.1 241.555H523.155V236.06H524.1V241.555ZM524.1 230.565H523.155V225.071H524.1V230.565ZM524.1 219.576H523.155V214.081H524.1V219.576ZM524.1 208.587H523.155V203.092H524.1V208.587ZM524.1 197.597H523.155V192.103H524.1V197.597ZM524.1 186.608H523.155V181.113H524.1V186.608Z" fill="#807DFF"/>
<path d="M524.1 280.018H523.155V282.852H524.1V280.018Z" fill="#807DFF"/>
<path d="M731.842 284.169H419.061C418.801 284.169 418.552 284.065 418.369 283.882C418.185 283.698 418.082 283.449 418.082 283.19V133.274C418.082 133.014 418.185 132.765 418.369 132.582C418.552 132.398 418.801 132.295 419.061 132.295C419.321 132.295 419.569 132.398 419.753 132.582C419.937 132.765 420.04 133.014 420.04 133.274V282.211H731.842C732.102 282.211 732.351 282.314 732.534 282.498C732.718 282.681 732.821 282.93 732.821 283.19C732.821 283.449 732.718 283.698 732.534 283.882C732.351 284.065 732.102 284.169 731.842 284.169Z" fill="#3F3D56"/>
<path d="M575.548 212.069L523.544 173.118L472.251 211.537L471.077 209.97L523.544 170.672L575.3 209.438L626.731 153.155L626.938 153.071L678.817 132.168L679.549 133.985L627.876 154.804L575.548 212.069Z" fill="#3F3D56"/>
<path d="M471.664 216.627C474.908 216.627 477.537 213.998 477.537 210.754C477.537 207.51 474.908 204.881 471.664 204.881C468.421 204.881 465.791 207.51 465.791 210.754C465.791 213.998 468.421 216.627 471.664 216.627Z" fill="#605CFF"/>
<path d="M523.544 178.451C526.788 178.451 529.417 175.822 529.417 172.578C529.417 169.335 526.788 166.705 523.544 166.705C520.3 166.705 517.671 169.335 517.671 172.578C517.671 175.822 520.3 178.451 523.544 178.451Z" fill="#605CFF"/>
<path d="M575.424 216.627C578.668 216.627 581.297 213.998 581.297 210.754C581.297 207.51 578.668 204.881 575.424 204.881C572.18 204.881 569.551 207.51 569.551 210.754C569.551 213.998 572.18 216.627 575.424 216.627Z" fill="#605CFF"/>
<path d="M627.304 159.852C630.547 159.852 633.177 157.222 633.177 153.979C633.177 150.735 630.547 148.105 627.304 148.105C624.06 148.105 621.431 150.735 621.431 153.979C621.431 157.222 624.06 159.852 627.304 159.852Z" fill="#605CFF"/>
<path d="M679.184 138.319C682.427 138.319 685.057 135.689 685.057 132.445C685.057 129.202 682.427 126.572 679.184 126.572C675.94 126.572 673.311 129.202 673.311 132.445C673.311 135.689 675.94 138.319 679.184 138.319Z" fill="#605CFF"/>
<path d="M349.27 28.6758H347.27V382.064H349.27V28.6758Z" fill="#807DFF"/>
<path d="M820.769 378.447C821.46 377.625 821.962 376.661 822.24 375.624C822.518 374.587 822.565 373.501 822.378 372.444C822.191 371.386 821.775 370.383 821.158 369.504C820.541 368.624 819.739 367.891 818.808 367.356L823.69 341.713L811.169 346.931L808.453 370.482C807.657 372.105 807.484 373.964 807.967 375.706C808.449 377.449 809.555 378.953 811.073 379.935C812.591 380.917 814.417 381.308 816.204 381.034C817.991 380.759 819.615 379.839 820.769 378.447Z" fill="#FFB7B7"/>
<path d="M883.2 535.796H872.598L867.554 494.902L883.202 494.903L883.2 535.796Z" fill="#FFB7B7"/>
<path d="M885.903 546.075L851.718 546.074V545.642C851.718 542.113 853.12 538.729 855.615 536.233C858.111 533.738 861.495 532.336 865.024 532.336L885.904 532.337L885.903 546.075Z" fill="#2F2E41"/>
<path d="M825.26 535.796H814.658L809.614 494.902L825.262 494.903L825.26 535.796Z" fill="#FFB7B7"/>
<path d="M825.369 546.075L791.184 546.074V545.642C791.184 542.113 792.586 538.729 795.081 536.233C797.576 533.738 800.961 532.336 804.49 532.336L825.37 532.337L825.369 546.075Z" fill="#2F2E41"/>
<path d="M824.391 363.082L814.014 386.989L805.453 524.402L827.073 523.537L832.978 458.032L851.192 399.688L861.664 464.732L865.988 521.807L883.877 522.582L891.005 363.082H824.391Z" fill="#2F2E41"/>
<path d="M876.264 245.113L846.187 245.866L828.529 254.931L827.56 321.81L816.547 367.985C816.547 367.985 885.358 372.721 894.87 365.803L883.628 313.051L898.706 256.042L876.264 245.113Z" fill="#605CFF"/>
<path d="M831.741 255.977L828.528 254.932C828.528 254.932 818.337 261.472 819.307 277.285C819.307 277.285 818.925 285.468 819.29 290.914C819.708 297.16 807.183 359.231 807.183 359.231H825.343L833.126 303.021L831.741 255.977Z" fill="#605CFF"/>
<path d="M898.235 379.312C897.545 378.49 897.043 377.526 896.765 376.489C896.487 375.452 896.44 374.366 896.627 373.309C896.814 372.251 897.23 371.248 897.847 370.369C898.464 369.49 899.266 368.757 900.196 368.221L895.314 342.578L907.835 347.796L910.552 371.347C911.348 372.97 911.521 374.829 911.038 376.572C910.555 378.314 909.45 379.818 907.932 380.8C906.413 381.782 904.588 382.173 902.801 381.899C901.014 381.624 899.389 380.704 898.235 379.312Z" fill="#FFB7B7"/>
<path d="M894.181 256.84L897.394 255.795C897.394 255.795 907.585 262.336 906.615 278.149C906.615 278.149 906.997 286.331 906.633 291.777C906.214 298.023 911.821 360.094 911.821 360.094H893.661L885.878 303.884L894.181 256.84Z" fill="#605CFF"/>
<path d="M883.647 217.055C883.647 221.179 882.424 225.21 880.133 228.638C877.842 232.067 874.586 234.74 870.776 236.318C866.966 237.896 862.774 238.309 858.729 237.504C854.685 236.7 850.97 234.714 848.054 231.798C845.138 228.882 843.152 225.167 842.348 221.123C841.543 217.078 841.956 212.886 843.534 209.076C845.112 205.266 847.785 202.01 851.214 199.719C854.642 197.428 858.673 196.205 862.797 196.205C865.528 196.198 868.234 196.73 870.76 197.768C873.286 198.807 875.582 200.334 877.519 202.26C879.455 204.186 880.992 206.475 882.044 208.996C883.095 211.517 883.64 214.22 883.647 216.951C883.647 216.986 883.647 217.02 883.647 217.055Z" fill="#FFB7B7"/>
<path d="M842.017 189.049C844.459 183.797 849.186 184.835 853.32 186.615C858.554 185.454 863.533 181.978 869.173 184.034C874.729 192.114 893.382 189.737 889.414 202.892C889.408 206.044 895.345 204.209 894.309 209.372C897.454 219.308 882.957 238.124 874.635 234.162C876.693 230.39 881.395 221.822 874.264 220.972C858.923 235.246 872.681 193.792 853.406 205.847C847.024 211.688 838.287 194.891 842.017 189.049Z" fill="#2F2E41"/>
</g>
<defs>
<clipPath id="clip0_1536_2">
<rect width="1029.56" height="548.695" fill="white"/>
</clipPath>
</defs>
</svg>
